<svg xmlns="http://www.w3.org/2000/svg" width="1316" height="520" viewBox="0 0 1316 520">
<rect width="100%" height="100%" fill="#0A1120"/>
<text x="48" y="50" fill="#E8EAEE" font-family="IBM Plex Mono,Consolas,monospace" font-size="22" font-weight="700">AI Industry Chain · BOTTLENECK MAP</text>
<path d="M260,145 C320,145 270,295 330,295" stroke="#2F5FE0" stroke-width="4" fill="none" opacity="0.75"/>
<path d="M500,295 C560,295 510,145 570,145" stroke="#2F5FE0" stroke-width="4" fill="none" opacity="0.75"/>
<path d="M740,145 C800,145 750,295 810,295" stroke="#2F5FE0" stroke-width="4" fill="none" opacity="0.75"/>
<path d="M980,295 C1040,295 990,145 1050,145" stroke="#2F5FE0" stroke-width="4" fill="none" opacity="0.75"/>
<path d="M1220,145 C1280,145 990,295 1050,295" stroke="#2F5FE0" stroke-width="4" fill="none" opacity="0.75"/>
<rect x="90" y="100" width="190" height="90" rx="16" fill="#111A2E" stroke="#CE3B44" stroke-width="4"/>
<text x="108" y="134" fill="#FFFFFF" font-family="Microsoft JhengHei,Noto Sans TC,sans-serif" font-size="22" font-weight="700">HBM／記憶體</text>
<text x="108" y="164" fill="#AEB6C4" font-family="Consolas,monospace" font-size="15">heat 5 · 超配（結構性瓶頸）</text>
<rect x="330" y="250" width="190" height="90" rx="16" fill="#111A2E" stroke="#C4652A" stroke-width="4"/>
<text x="348" y="284" fill="#FFFFFF" font-family="Microsoft JhengHei,Noto Sans TC,sans-serif" font-size="22" font-weight="700">光通訊／網路</text>
<text x="348" y="314" fill="#AEB6C4" font-family="Consolas,monospace" font-size="15">heat 4 · 精選／現金流檢驗</text>
<rect x="570" y="100" width="190" height="90" rx="16" fill="#111A2E" stroke="#C4652A" stroke-width="4"/>
<text x="588" y="134" fill="#FFFFFF" font-family="Microsoft JhengHei,Noto Sans TC,sans-serif" font-size="22" font-weight="700">電力／電網／散熱</text>
<text x="588" y="164" fill="#AEB6C4" font-family="Consolas,monospace" font-size="15">heat 4 · 超配但守估值紀律</text>
<rect x="810" y="250" width="190" height="90" rx="16" fill="#111A2E" stroke="#C4652A" stroke-width="4"/>
<text x="828" y="284" fill="#FFFFFF" font-family="Microsoft JhengHei,Noto Sans TC,sans-serif" font-size="22" font-weight="700">超大規模雲端 AI</text>
<text x="828" y="314" fill="#AEB6C4" font-family="Consolas,monospace" font-size="15">heat 4 · 超配（結構性瓶頸）</text>
<rect x="1050" y="100" width="190" height="90" rx="16" fill="#111A2E" stroke="#CE3B44" stroke-width="4"/>
<text x="1068" y="134" fill="#FFFFFF" font-family="Microsoft JhengHei,Noto Sans TC,sans-serif" font-size="22" font-weight="700">GPU／自研晶片</text>
<text x="1068" y="164" fill="#AEB6C4" font-family="Consolas,monospace" font-size="15">heat 5 · 超配但避免追高</text>
<rect x="1050" y="250" width="190" height="90" rx="16" fill="#111A2E" stroke="#2F5FE0" stroke-width="4"/>
<text x="1068" y="284" fill="#FFFFFF" font-family="Microsoft JhengHei,Noto Sans TC,sans-serif" font-size="22" font-weight="700">AI 應用變現</text>
<text x="1068" y="314" fill="#AEB6C4" font-family="Consolas,monospace" font-size="15">heat 2 · 低配／待證明</text>
<text x="48" y="485" fill="#8A93A4" font-family="Consolas,monospace" font-size="15">Node border color = weekly heat level. Blue edges = current bottleneck transmission path.</text>
</svg>